HIERARCHY
ROOT Hips
{
    OFFSET 0.0 0.0 0.0
    CHANNELS 6 Xposition Yposition Zposition Zrotation Xrotation Yrotation
    JOINT LHipJoint
    {
        OFFSET 0.1 0.0 0.0
        CHANNELS 3 Zrotation Xrotation Yrotation
        JOINT LeftHip
        {
            OFFSET 0.039829742163419724 0.0 0.0
            CHANNELS 3 Zrotation Xrotation Yrotation
            JOINT LeftKnee
            {
                OFFSET 0.0 0.0 -0.509194016456604
                CHANNELS 3 Zrotation Xrotation Yrotation
                JOINT LeftAnkle
                {
                    OFFSET 0.0 0.0 -0.36382007598876953
                    CHANNELS 3 Zrotation Xrotation Yrotation
                    End Site
                    {
                        OFFSET 0.0 -0.1 0.0
                    }
                }
            }
        }
    }
    JOINT lowerback
    {
        OFFSET 0.0 0.0 0.1
        CHANNELS 3 Zrotation Xrotation Yrotation
        JOINT Chest
        {
            OFFSET 0.0 0.0 0.22843974828720093
            CHANNELS 3 Zrotation Xrotation Yrotation
            JOINT Chest2
            {
                OFFSET 0.0 0.0 0.2604352831840515
                CHANNELS 3 Zrotation Xrotation Yrotation
                JOINT LeftCollar
                {
                    OFFSET 0.1 0.0 0.0
                    CHANNELS 3 Zrotation Xrotation Yrotation
                    JOINT LeftShoulder
                    {
                        OFFSET 0.08644933998584747 0.0 0.0
                        CHANNELS 3 Zrotation Xrotation Yrotation
                        JOINT LeftElbow
                        {
                            OFFSET 0.2282620668411255 0.0 0.0
                            CHANNELS 3 Zrotation Xrotation Yrotation
                            JOINT LeftWrist
                            {
                                OFFSET 0.1391773819923401 0.0 0.0
                                CHANNELS 3 Zrotation Xrotation Yrotation
                                End Site
                                {
                                    OFFSET 0.1 0.0 0.0
                                }
                            }
                        }
                    }
                }
                JOINT Neck
                {
                    OFFSET 0.0 0.0 0.1
                    CHANNELS 3 Zrotation Xrotation Yrotation
                    JOINT Head
                    {
                        OFFSET 0.0 0.0 0.11641473323106766
                        CHANNELS 3 Zrotation Xrotation Yrotation
                        End Site
                        {
                            OFFSET 0.0 0.0 0.14083035290241241
                        }
                    }
                }
                JOINT RightCollar
                {
                    OFFSET -0.1 0.0 0.0
                    CHANNELS 3 Zrotation Xrotation Yrotation
                    JOINT RightShoulder
                    {
                        OFFSET -0.08644933998584747 0.0 0.0
                        CHANNELS 3 Zrotation Xrotation Yrotation
                        JOINT RightElbow
                        {
                            OFFSET -0.2282620668411255 0.0 0.0
                            CHANNELS 3 Zrotation Xrotation Yrotation
                            JOINT RightWrist
                            {
                                OFFSET -0.1391773819923401 0.0 0.0
                                CHANNELS 3 Zrotation Xrotation Yrotation
                                End Site
                                {
                                    OFFSET -0.1 0.0 0.0
                                }
                            }
                        }
                    }
                }
            }
        }
    }
    JOINT RHipJoint
    {
        OFFSET -0.1 0.0 0.0
        CHANNELS 3 Zrotation Xrotation Yrotation
        JOINT RightHip
        {
            OFFSET -0.039829742163419724 0.0 0.0
            CHANNELS 3 Zrotation Xrotation Yrotation
            JOINT RightKnee
            {
                OFFSET 0.0 0.0 -0.509194016456604
                CHANNELS 3 Zrotation Xrotation Yrotation
                JOINT RightAnkle
                {
                    OFFSET 0.0 0.0 -0.36382007598876953
                    CHANNELS 3 Zrotation Xrotation Yrotation
                    End Site
                    {
                        OFFSET 0.0 -0.1 0.0
                    }
                }
            }
        }
    }
}
MOTION
Frames: 4
Frame Time: 0.03333333333333333
-1.290151703869924e-05 0.9581670165061951 -2.0922896510455757e-05 95.67359907861912 -35.30067578965451 100.95078002292935 0.0 0.0 0.0 -7.403759475138544 -8.826455609840105 1.570044619203096 7.292649375784553 8.13602731459338 24.429462929016317 -9.54166404439055e-15 7.951386703658792e-16 6.620859447075238e-32 0.0 0.0 0.0 0.19488155050222883 0.2348657694116995 9.549981071981131 -49.41949505955707 -1.1740863448172275e-07 -2.3660237233594732e-06 3.975693351829396e-16 -2.4848083448933722e-17 9.93923337957349e-16 -35.49907616986741 25.176170333704263 83.91314685957447 -18.209075994001566 -1.0683287928907498e-06 -4.777722777997774e-07 1.7655625192200634e-31 3.1805546814635168e-15 -6.3611093629270335e-15 3.975693351829396e-16 -2.4848083448933722e-17 9.93923337957349e-16 -19.452608212963817 -2.1395104933893587 2.0467445794271093 3.975693351829396e-16 -2.4848083448933722e-17 9.93923337957349e-16 -98.24364664707302 3.0919295413549275 -68.8803570380181 10.560337344579697 -1.0980360000965298e-06 3.882571357471804e-07 6.025660236366428e-16 -3.975693351829396e-16 2.09057085405696e-33 0.0 0.0 0.0 5.072140485782264 5.965503712910943 5.285192513691293 -19.915602818968487 -18.53758005365702 12.244306377680985 -3.975693351829395e-15 -5.517382872562698e-32 1.5902773407317582e-15
-1.3248660252429545e-05 0.9581670761108398 -2.1004580048611388e-05 96.33740364916441 -38.25264116637162 101.38522391810629 -3.1805546814635168e-15 6.3611093629270335e-15 1.7655625192200634e-31 -7.434316545255402 -9.08053488469525 1.166732116035666 4.663336233072158 5.43015367978625 24.849953622010467 7.951386703658792e-15 7.951386703658792e-16 -5.517382872562698e-32 -3.1805546814635168e-15 6.3611093629270335e-15 1.7655625192200634e-31 -0.3951247721845453 -0.4877487874739546 9.582580482678017 -46.286772608144744 -1.0760714717972993e-07 -1.511650832908941e-06 1.9878466759146977e-16 6.361109362927033e-15 -1.1034765745125397e-32 -36.572866654572444 25.512833323007722 84.52542885456593 -18.102414412441604 -1.3788862364644695e-06 -2.664356179656968e-06 0.0 3.1805546814635168e-15 0.0 1.9878466759146977e-16 6.361109362927033e-15 -1.1034765745125397e-32 -18.849846321081902 -2.3203307153645296 2.1007635491138936 1.9878466759146977e-16 6.361109362927033e-15 -1.1034765745125397e-32 -95.38821704806524 3.701394671923604 -68.81420586480002 10.0532192327775 -8.924624977474713e-07 -1.7496687752912974e-07 9.243487043003345e-15 -3.975693351829396e-16 -3.9756933518293955e-16 -3.1805546814635168e-15 6.3611093629270335e-15 1.7655625192200634e-31 4.614089951734796 5.55956373584795 5.7999125246208605 -20.396768050316652 -19.056225093385965 10.877584457931714 7.951386703658792e-16 0.0 0.0
-1.3857687008567154e-05 0.9581669569015503 -2.1208419639151543e-05 95.82293644398388 -36.09232249610489 101.04623339224507 9.54166404439055e-15 1.5902773407317588e-15 3.1805546814635168e-15 -7.491219177369365 -9.061345578172407 1.3875399379511533 6.0231048939109275 6.881867684911841 24.71009174976237 7.951386703658796e-16 -6.3611093629270335e-15 4.770832022195275e-15 9.54166404439055e-15 1.5902773407317588e-15 3.1805546814635168e-15 -0.16394460950423678 -0.20061384997181592 9.773153188782468 -48.6621574102012 2.332613059990599e-06 -1.7420616990706528e-06 -7.951386703658791e-16 0.0 0.0 -40.3147730215828 26.089123132577996 85.7723721339559 -18.206704814981826 -3.396364375567234e-06 4.3835711472253533e-07 6.3611093629270335e-15 3.1805546814635168e-15 -1.7655625192200634e-31 -7.951386703658791e-16 0.0 0.0 -18.87351686877955 -1.8444450964506982 1.9990588089147199 -7.951386703658791e-16 0.0 0.0 -91.94562991673934 4.490538103389474 -68.80393142709306 9.47103458467814 3.0986462069211324e-07 1.5151800790397187e-07 8.137747329525795e-16 -9.93923337957349e-17 -3.975693351829396e-16 9.54166404439055e-15 1.5902773407317588e-15 3.1805546814635168e-15 4.983812790485338 5.942749206599188 5.345402156885068 -19.469915157681186 -18.38296300354337 12.102367397941068 -3.975693351829396e-15 7.951386703658792e-16 2.758691436281349e-32
-1.3455850421451032e-05 0.9581669569015503 -2.099668199662119e-05 95.17070481040149 -32.767028048860666 100.69344808135749 -6.361109362927032e-15 0.0 0.0 -7.3552116545730275 -8.925659578126451 1.8101710698753049 8.33244333428752 9.36691662453246 23.962710371318195 2.648343778830095e-31 6.3611093629270335e-15 -4.770832022195275e-15 -6.361109362927032e-15 0.0 0.0 0.2821283310800633 0.34649768722367963 9.94473138764976 -52.5120460311516 -7.255801241527892e-07 -1.983907528779798e-06 5.963540027744094e-16 1.034509288605506e-33 1.987846675914698e-16 -41.38053480688859 26.279275480516105 86.11559464739966 -17.87095520519325 -5.045950518967667e-06 3.221096704719076e-08 6.3611093629270335e-15 3.1805546814635168e-15 -1.7655625192200634e-31 5.963540027744094e-16 1.034509288605506e-33 1.987846675914698e-16 -18.04483491397792 -1.334199694158283 2.1308503944738892 5.963540027744094e-16 1.034509288605506e-33 1.987846675914698e-16 -89.64153696908878 5.2269940023942345 -68.85490739197932 9.623296013729346 -1.445095516858175e-06 -2.0844188457679697e-07 6.2741410708557654e-15 0.0 0.0 -6.361109362927032e-15 0.0 0.0 5.30511083382979 6.341913987587658 4.814856003417048 -17.689959413760995 -17.187208064587633 13.68379846172154 2.648343778830095e-31 -6.361109362927032e-15 4.7708320221952736e-15
